<svg xmlns="http://www.w3.org/2000/svg" width="40" height="28" viewBox="0 0 40 28">
  <path fill="#B82B5C" d="M17.9785 8.84286h-7.4873L0 0h28.9268s8.9039.517976 9.8662 9.70039c.0588 1.28441 0 4.67131 0 4.67131s-.2957 5.2291-5.089 7.9944c.2564.25 6.1595 5.3014 6.1595 5.3014h-7.487l-4.6492-4.0512H9.02419v4.0512H4.14841v-8.8403H22.0352l-4.1739-3.6074h7.449l4.2038 3.6074s4.431-1.2309 4.431-5.1782c.0153-1.4846 0-3.598 0-3.598s-.6225-4.72648-4.8562-5.23094c-.3367.01087-15.9314 0-15.9314 0l4.821 4.0228Z" />
</svg>
